<?xml version="1.0" standalone="no"?>
<!DOCTYPE svg PUBLIC "-//W3C//DTD SVG 20010904//EN"
 "http://www.w3.org/TR/2001/REC-SVG-20010904/DTD/svg10.dtd">
<svg version="1.0" xmlns="http://www.w3.org/2000/svg"
 width="612.000000pt" height="612.000000pt" viewBox="0 0 612.000000 612.000000"
 preserveAspectRatio="xMidYMid meet">
<metadata>
Created by potrace 1.11, written by Peter Selinger 2001-2013
</metadata>
<g transform="translate(0.000000,612.000000) scale(0.100000,-0.100000)"
fill="#000000" stroke="none">
<path d="M2685 5502 c-198 -87 -696 -303 -1107 -482 -412 -178 -748 -326 -748
-329 0 -6 957 -503 1895 -985 127 -65 253 -132 281 -147 l51 -29 909 486 c500
267 993 531 1097 586 103 55 187 103 187 106 0 8 -2163 946 -2187 949 -10 1
-180 -69 -378 -155z m365 -367 c137 -24 241 -62 452 -166 216 -107 297 -157
348 -215 67 -77 87 -170 54 -249 -21 -52 -106 -139 -176 -181 -139 -85 -297
-120 -496 -111 -191 9 -268 33 -556 172 -265 127 -361 197 -407 299 -71 156
56 328 308 417 136 48 318 61 473 34z"/>
<path d="M2805 5024 c-114 -18 -235 -75 -294 -139 -78 -85 -73 -164 15 -244
40 -36 106 -75 270 -155 277 -136 324 -151 474 -151 139 0 225 23 319 86 83
55 113 97 119 162 5 63 -18 103 -91 157 -62 47 -454 235 -541 260 -69 20 -214
32 -271 24z"/>
<path d="M4675 4292 c-357 -191 -856 -458 -1107 -592 l-458 -245 -2 -1487 c-2
-819 1 -1488 5 -1488 5 0 39 17 75 39 59 34 545 317 1382 804 151 88 372 216
490 284 118 69 232 136 253 149 l37 24 0 1430 c0 1138 -3 1430 -12 1430 -7 0
-305 -157 -663 -348z m145 -548 c13 -34 13 -1507 0 -1554 -10 -38 -62 -94 -95
-104 -51 -15 -50 -30 -55 589 l-5 576 -134 -358 c-160 -428 -170 -451 -221
-497 -45 -41 -82 -53 -113 -39 -13 6 -89 109 -170 229 l-147 218 0 -578 c0
-464 -3 -583 -14 -609 -19 -46 -72 -89 -105 -85 -22 3 -27 9 -33 48 -4 25 -7
380 -5 790 l2 745 23 36 c23 38 83 74 107 65 14 -5 96 -127 293 -436 57 -91
110 -171 116 -177 12 -13 18 4 311 802 105 285 113 303 155 339 41 34 77 34
90 0z"/>
<path d="M774 4597 c-2 -7 -3 -644 -2 -1417 l3 -1405 250 -146 c300 -175 1099
-640 1607 -936 202 -117 373 -213 379 -213 9 0 10 231 6 987 -4 544 -7 1213
-7 1488 l0 500 -937 485 c-515 267 -1017 526 -1115 577 -117 60 -181 88 -184
80z m1119 -1207 c429 -224 467 -250 467 -313 0 -36 -15 -57 -41 -57 -9 0 -172
81 -361 179 -188 99 -351 183 -361 186 -16 7 -17 -9 -15 -280 l3 -286 305
-160 c186 -97 314 -170 327 -186 44 -54 38 -123 -11 -123 -13 0 -156 70 -320
155 -163 85 -298 155 -301 155 -3 0 -5 -159 -5 -354 0 -316 -2 -356 -16 -371
-31 -30 -97 4 -130 67 -19 37 -21 1567 -2 1586 7 7 23 12 36 12 13 0 204 -95
425 -210z"/>
</g>
</svg>
